<?xml version="1.0" encoding="utf-8" ?>
<svg baseProfile="full" height="300mm" version="1.1" viewBox="0,0,200,300" width="200mm" xmlns="http://www.w3.org/2000/svg" xmlns:ev="http://www.w3.org/2001/xml-events" xmlns:xlink="http://www.w3.org/1999/xlink"><defs /><rect fill="#222222" height="300" width="200" x="0" y="0" /><text fill="#FFFFFF" style="font-size:12px; font-family:Arial; font-weight:bold;" x="10" y="20">Over 10 Running</text><text fill="#FFFFFF" style="font-size:4px; font-family:Arial" x="10" y="280">Runner</text><text fill="#FFFFFF" style="font-size:9px; font-family:Arial" x="10" y="290">celiachu</text><text fill="#FFFFFF" style="font-size:4px; font-family:Arial" x="65" y="280">SPECIAL TRACKS</text><rect fill="yellow" height="2.6" width="2.6" x="65" y="283" /><text fill="#FFFFFF" style="font-size:3px; font-family:Arial" x="70" y="285.5">Over 20.0 km</text><rect fill="red" height="2.6" width="2.6" x="65" y="287" /><text fill="#FFFFFF" style="font-size:3px; font-family:Arial" x="70" y="289.5">Over 40.0 km</text><text fill="#FFFFFF" style="font-size:4px; font-family:Arial" x="120" y="280">STATISTICS</text><text fill="#FFFFFF" style="font-size:3px; font-family:Arial" x="120" y="285">Number: 2</text><text fill="#FFFFFF" style="font-size:3px; font-family:Arial" x="120" y="290">Weekly: 1.0</text><text fill="#FFFFFF" style="font-size:3px; font-family:Arial" x="141" y="285">Total: 32.3 km</text><text fill="#FFFFFF" style="font-size:3px; font-family:Arial" x="141" y="290">Avg: 16.1 km</text><text fill="#FFFFFF" style="font-size:3px; font-family:Arial" x="167" y="285">Min: 10.0 km</text><text fill="#FFFFFF" style="font-size:3px; font-family:Arial" x="167" y="290">Max: 22.3 km</text><polyline fill="none" points="118.18408355349675,100.57710797796608 118.23592698492575,100.42736286757281 118.26184870058205,100.27761768150958 118.39145727897994,99.79843257801258 118.49514414183795,99.22939926187973 118.59883100446314,98.3908218581928 118.70251786720473,96.95325507727102 118.59883100446314,95.33598411790445 118.39145727897994,93.23950863449136 118.02855325932615,90.7237184876285 117.69157095556147,88.5673099430569 117.35458865156397,86.44083615884301 116.93984120059758,84.34429777867626 116.75838919077069,82.1878428349155 116.55101546528749,80.12122546197497 116.4991720339749,78.05459368295851 116.36956345557701,75.89809298870387 116.317720024148,73.62176968183485 116.3436417398043,71.49518869517487 116.26587659283541,69.30868811273831 116.23995487717912,67.06226660840912 116.11034629866481,64.81582807993982 116.11034629866481,62.6592310758715 116.21403316152282,60.442712249059696 116.23995487717912,58.106363650702406 116.11034629866481,55.6801359988458 116.21403316152282,53.34374985948671 116.13626801443752,51.097207357001025 116.13626801443752,48.910556301038014 116.13626801443752,46.51420784887159 116.18811144575011,44.05793057655683 116.13626801443752,41.6914978522982 116.18811144575011,39.35500143369427 115.72152056335472,37.31804080741131 113.54409644578118,37.43786240828922 111.26298546558246,37.46781780087622 109.0077962008072,37.587639341305476 106.49338977923617,37.617594718787586 104.05674850486685,37.587639341305476 101.62010723038111,37.587639341305476 99.02793566184118,37.527728577144444 96.53945095604286,37.67750546467141 94.8804611521773,37.767371560883475 92.15868100512307,37.73741619856446 89.54058772104327,37.947103671584046 86.79288585833274,37.91714832733851 84.84875718178228,39.175270176900085 84.1747925740201,41.571677971311146 84.14887085836381,44.17774945235578 84.1747925740201,46.75384356602444 84.04518399562221,49.06032743596006 84.07110571139492,51.33683936862508 84.09702742705122,53.64328757318435 84.09702742705122,56.03957838562201 84.14887085836381,58.40589655149961 84.22663600544911,60.921960967360064 84.2007142896764,63.5578150676738 84.2007142896764,65.86416817852296 84.2007142896764,68.32026474818122 84.1747925740201,70.65653284417931 84.22663600544911,72.93287892002263 84.4858531622449,75.26911066457978 85.85970409354195,76.01789899435244 88.24450193659868,75.80823845270788 88.78885796607938,77.87488589095301 88.3481887994567,80.51058925682446 88.24450193659868,82.48735140397912 88.1408150739735,84.43414972760365 88.08897164242808,86.2910839090764 88.0112064955756,88.32770802560844 87.9334413484903,90.2445179442002 88.24450193659868,92.19126533405506 88.60740595625248,94.13799994243891 89.17768370127305,96.0847217697592 89.87757002480794,97.97153226702358 90.49969120137393,99.8583307583176 91.0440472306218,101.80501503116102 91.6661684071878,103.72173782906611 92.26236786798108,105.63844823816908 92.88448904443067,107.55514625870273 93.48068850522395,109.41193565275171 94.10280968167353,111.26871342113009 94.67308742669411,113.24527052923804 94.6990091423504,115.28170952925575 94.72493085812312,117.2582398923696 94.72493085812312,119.20480995118851 94.67308742669411,121.15136723424075 94.67308742669411,123.06796500025666 94.49163541698363,125.10433655645465 94.23241825995501,127.08080146144493 93.73990566201974,129.11714546760777 93.19554963253904,131.0037458210718 92.65119360317476,132.89033417525934 92.08091585803777,134.80685609026114 91.5365598287899,136.63352951500565 91.01812551508192,138.52008206420578 90.42192605428863,140.40662261561374 89.98125688766595,142.3230959706707 88.76293625030667,143.91016609588405 86.74104242690373,143.73049820610322 84.87467889755499,143.341217404668 83.26753252511844,143.1615491702105 81.24563870159909,143.13160445389803 79.12005801545456,143.07171501210541 77.1500076232478,143.10165973452968 76.52788644679822,141.7541442355432 77.51291164278518,139.92750234229607 78.42017169180326,138.16073964646785 79.35335345647763,136.36402102862485 80.23469178983942,134.4774547672714 81.01234326034319,132.50103914816282 81.71222958387807,130.55455634908867 82.12697703484446,128.9674147668993 82.51580277015455,127.52999619400362 82.95647193689365,125.91289197310107 83.29345424065832,124.29577893562964 83.55267139768694,122.73855064055533 83.91557541722432,120.64226887086988 84.09702742705122,118.63581387081649 84.2007142896764,116.50955569857615 84.25255772098899,114.11375357763609 84.304401152418,111.83772363589378 84.3821662995033,109.86115714657353 84.3821662995033,107.82468092429917 84.4340097309323,105.78819071719772 84.40808801515959,104.02122464714921 84.40808801515959,102.04460605839267 84.40808801515959,99.97812708260608 84.40808801515959,97.8517351320188 84.3821662995033,95.5456308509747 84.304401152418,93.32935788782197 84.356244583847,91.68211725103902 84.304401152418,89.6754662929161 84.33032286807429,87.5190501245088 84.3821662995033,85.21286547774798 84.40808801515959,83.71533337369328 84.304401152418,82.66705640021246 84.304401152418,81.52892291807802 84.40808801515959,80.33088295347989 84.2007142896764,79.01303340075538 83.94149713288061,76.8265882661508 83.78596683871001,74.61017537000589 83.734123407281,72.54350517262355 83.70820169174112,70.5067726210691 83.78596683871001,68.55988283618353 83.60451482888311,66.52312291413546 83.68227997596841,64.4863489975105 83.734123407281,62.38965534704039 83.734123407281,60.3528530280455 83.70820169174112,58.40589655149961 83.6563582601957,56.428973812784534 83.6563582601957,54.27231578680221 83.60451482888311,52.17554988336633 83.57859311322682,50.28844788760762 83.60451482888311,48.2515624082007 83.57859311322682,46.21466293002595 83.57859311322682,44.35747767536668 83.55267139768694,42.59014541603392 83.44898453482892,41.12235298595624 82.74909821129404,38.99553881105385 80.98642154457048,37.707460833131336 79.01637115259655,37.587639341305476 77.0981641918188,37.617594718787586 75.28364409389906,37.67750546467141 73.41728056455031,37.707460833131336 71.42130845668726,37.82728227664484 69.37349291762803,37.797326920204796 67.32567737845238,37.73741619856446 65.43339213333093,37.797326920204796 63.74848061380908,38.06692501809448 61.908038800233044,37.947103671584046 59.989831839338876,37.857237629796145 58.07162487867754,37.887192980066175 56.30894821207039,37.887192980066175 54.494428114034235,37.887192980066175 55.8164356140187,37.557683960709255 57.916094584506936,37.527728577144444 59.78245811385568,37.46781780087622 61.493291349033825,37.43786240828922 63.230046300101094,37.43786240828922 65.17417497653514,37.43786240828922 67.35159909410868,37.43786240828922 69.29572777042631,37.37795161391841 71.11024786846247,37.37795161391841 73.00253311358392,37.37795161391841 74.71336634876207,37.31804080741131 76.7093384565087,37.25812998879701 78.67938884859905,37.138308315188624 80.7790478192037,37.048442028288264 82.90462850546464,36.239644219196634 85.03020919172559,36.41937725638854 87.31132017204072,36.98853115516249 89.17768370127305,36.928620269929525 91.22549924056511,36.9585757140303 93.27331477962434,36.9585757140303 95.2433651718311,37.048442028288264 97.26525899523403,36.9585757140303 99.23530938732438,36.928620269929525 101.36089007358532,36.898664822714636 103.25317531859037,36.83875391937909 105.14546056371182,36.83875391937909 106.95998066163156,36.83875391937909 108.8522659066366,36.80879846311291 110.66678600478917,36.83875391937909 111.98879350465722,36.74888754152926 112.81828840659,36.80879846311291 114.06253075960558,36.74888754152926 116.00665943592321,37.138308315188624 116.3436417398043,39.20522539396188 116.36956345557701,41.18226302333642 116.36956345557701,43.00951334650745 116.39548517111689,44.92661632882664 116.4473286025459,46.75384356602444 116.4214068868896,48.61101380409673 116.4473286025459,50.528080552991014 116.36956345557701,52.41518102303962 116.4473286025459,54.78152812476037 116.4473286025459,56.75846185159753 116.4473286025459,58.58561614656355 116.55101546528749,60.292946865665726 116.4991720339749,62.2099380583968 116.4991720339749,63.94720061821863 116.4991720339749,65.65450045542093 117.58788409270346,66.94245698326267 119.45424762216862,66.97240939410403 121.24284600454848,66.97240939410403 122.90183580829762,66.94245698326267 124.84596448473167,66.94245698326267 126.60864115133882,66.94245698326267 128.34539610228967,66.91250456945272 129.74516874924302,66.91250456945272 131.17086311196908,66.88255215261597 132.82985291595105,66.85259973278153 134.85174673935398,66.85259973278153 136.66626683739014,66.79269488382852 138.45486521965358,66.82264730980387 140.45083732751664,66.79269488382852 142.47273115080316,66.76274245491368 144.57239012152422,66.52312291413546 145.79071075865068,67.8110756680835 145.42780673899688,69.8777788579464 144.7279204155784,71.25557297992054 143.89842551364563,72.69326436673873 142.86155688622966,74.43046549000428 141.85060997447,76.1976079121232 140.9174282096792,77.81498326931614 140.08793330797926,79.31254517717753 139.31028183724266,80.929903540964 138.53263036673889,82.45740056067007 137.7290571804624,83.92498832361889 136.97732742561493,85.42251936870161 136.25151938642375,86.8601420558116 135.52571134723257,88.35765827583964 134.6962164452998,90.03486746293493 133.9185649746796,91.68211725103902 133.16683521971572,93.26945838870597 132.41510546486825,94.91669020711561 131.66337571002077,96.50401402887655 130.9116459551733,98.06138008643757 130.18583791598212,99.61873796454165 129.40818644536193,101.20603661605855 128.68237840617076,102.703480385273 128.03433551406488,104.20091659287573 127.33444919053,105.69834523883765 126.63456286699511,107.22571466804948 125.51992909261025,108.48354240893968 124.06831301411148,107.94447403043159 122.90183580829762,107.43535299535142 124.22384330816567,108.18406009743921 125.46808566118125,108.9627134783077 125.10518164152745,110.3403259901097 124.37937360233627,111.59814052059664 123.4980352690909,112.97574079022161 122.56485350441653,114.41322990111075 121.68351517117117,115.8507120446593 120.77625512203667,117.22829256090336 119.9208385044476,118.5759194829734 119.06542188685853,119.92354028188856 118.15816183772404,121.45083645157865 116.3436417398043,121.51073025885853 115.02163423993625,120.19306370679988 113.95884389674757,118.96523278718814 112.89605355379172,117.43792381763342 111.67773291643243,115.88065951515455 110.58902085770387,113.99396296351915 109.88913453405257,112.10725440920214 111.05561173998285,110.78954607777996 112.4813061025925,109.74136481480673 113.77739188703708,108.5733870434633 114.89202566142194,107.28561134811025 115.77336399478372,105.9379331204691 116.4991720339749,104.62019737591618 117.19905835750978,103.18266079443856 117.79525781818666,101.80501503116102 118.21000526926946,100.30756672477582 118.52106585749425,98.84006004792172 118.62475272011943,97.46239410922863 118.54698757315055,95.42583273601485 118.36553556332365,93.56895576359238 117.40643208299298,92.94001092680264 116.6547023281455,92.07146586384624 115.69559884769842,92.07146586384624 114.86610394576564,92.46081396535737 113.95884389674757,92.22121519414941 113.49225301446859,91.95166634512134 112.7923666909337,91.77196697628824 111.88510664191563,91.47246778625413 111.08153345563915,91.08311838691588 110.53717742627487,91.05316841200693 110.51125571061857,90.63386844468187 109.8632128185127,90.69376847633976 109.6299173773732,90.69376847633976 109.73360423999839,90.9034184916818 109.91505624982528,90.96331846885732 109.6039956616005,91.23286821640795 109.34477850468829,91.47246778625413 109.3966219361173,91.50241771893343 109.3966219361173,91.50241771893343 109.318856789032,91.50241771893343 109.3966219361173,91.50241771893343 109.3966219361173,91.50241771893343 109.3966219361173,91.50241771893343 109.3966219361173,91.50241771893343 109.3966219361173,91.50241771893343 109.3966219361173,91.50241771893343 109.37070022034459,91.50241771893343 109.37070022034459,91.50241771893343 109.37070022034459,91.50241771893343 109.37070022034459,91.50241771893343 109.37070022034459,91.50241771893343 109.2410916419467,91.44251785066444 108.95595276949462,91.2927681269939 108.82634419109672,91.41256791196065 108.87818762240931,91.41256791196065 108.8522659066366,91.3227180778049 108.8522659066366,91.3227180778049 108.8522659066366,91.3227180778049 108.8522659066366,91.3227180778049 108.82634419109672,91.3227180778049 108.8522659066366,91.41256791196065 108.87818762240931,91.38261797023006 108.8522659066366,91.41256791196065 108.82634419109672,91.41256791196065 108.82634419109672,91.41256791196065" stroke="yellow" stroke-linecap="round" stroke-linejoin="round" stroke-width="0.5"><title>2025-11-23 22.3km</title><desc>1173394982</desc></polyline><polyline fill="none" points="64.87350373517256,158.9626576913288 64.99675459926948,159.97344146916294 65.15081817936152,161.0539314817579 65.3356944755651,162.27383584558265 65.52057077165227,163.49373626947636 65.73625978373457,164.78334100494976 65.95194879604969,166.00323332392145 66.16763780801557,167.22312170328223 66.35251410421915,168.37329856675933 66.53739040030632,169.45376455111546 66.69145398039836,170.56908103541355 66.87633027660195,171.64954073919216 66.99958114069887,172.76485074017546 67.09201928868424,173.88015744814766 67.21527015278116,175.0651672173408 67.33852101699449,176.21532020310406 67.43095916497987,177.26091078764875 67.49258459697012,178.3413513514388 67.55421002907678,179.3869360515091 67.55421002907678,180.3628124940442 67.55421002907678,181.44324418623 67.64664817706216,182.80249257132527 67.61583546106704,184.02232670178637 67.58502274507191,185.10274792800192 67.58502274507191,186.00890528375749 67.55421002907678,186.94991254500928 67.55421002907678,187.96062143714516 67.3693337328732,189.04103140084771 67.21527015278116,190.1214382748003 67.06120657268912,191.30639710015384 66.87633027660195,192.52620377365383 66.7222666965099,193.53689774833038 66.59901583229657,194.47788625987596 66.47576496843249,195.27946721747867 66.32170138822403,196.01134399787406 66.10601237602532,196.77807053306606 65.98276151204482,197.47509330575122 65.82869793183636,198.24181687057717 65.61300891963765,199.04338984299102 65.42813262355048,200.0192155141558 65.1200054633664,201.20414329820778 64.87350373517256,202.14511271490483 64.65781472309027,203.26033269285108 64.47293842688669,204.30584843287943 64.28806213079952,205.07255813697702 64.13399855070747,205.90896694900584 63.979934970499016,206.6408231407695 63.8566841064021,207.33782771986444 63.67180781031493,208.06968114429037 63.51774423010647,208.76668308782973 63.33286793413572,209.56823373347288 63.11717892193701,210.5440322245995 62.90148990985472,211.5546780055738 62.716613613651134,212.669870213198 62.68580089765601,213.75020952610066 62.716613613651134,214.51690006788704 62.74742632964626,215.24873958854005 62.83986447774805,215.94572829059325 62.99392805772368,216.712414378213 63.17880435392726,217.65334517796873 63.48693151422776,218.66397194587626 63.8566841064021,219.7442941230256 64.44212571089156,220.96400899830041 64.99675459926948,222.14887110781274 65.52057077165227,223.26403205280076 66.01357422803994,224.17009789761505 66.56820311630145,225.18070723876008 67.09201928868424,225.98222307063406 67.55421002907678,226.64434356268612 67.95477533736266,227.16706944745965 68.4169660777552,227.75949124290491 68.90996953402646,228.31706384924473 69.40297299041413,228.90948384208605 69.8959764468018,229.46705475184717 70.41979261918459,230.05947294220096 71.31336138385814,230.9306744763744 72.29936829640064,231.73217811418 73.37781335716136,232.67307152031572 74.45625841803849,233.54426703014178 75.56551619467791,234.41546053180355 76.76721211953554,235.3214996434981 77.93809532839805,236.2275365833484 79.13979125325568,237.13357135120896 80.21823631389998,237.90021445852472 80.8653033504961,238.42292477656156 81.48155767098069,238.80624521707068 82.19025013945065,239.0501762040367 82.7756917438237,239.25925978191663 83.48438421229366,239.50319047650555 84.19307668088004,239.7122738037433 84.93258186546154,239.95620420607156 85.67208704981022,240.16528728263802 86.22671593830455,240.4092173926183 86.96622112265322,241.0364655239391 87.79816445533652,241.83794773250702 88.44523149181623,242.81366291004815 88.87660951609723,243.8242224031128 89.24636210838798,244.62569870075095 89.61611470056232,245.25293983527808 90.17074358905666,245.6711000134237 90.7561851934297,245.81048663667752 91.52650309400633,245.8453332844074 92.17357013048604,245.77563998565893 92.75901173485909,245.46201998213655 93.19038975914009,245.0090128511074 93.71420593152288,244.52115841049817 94.48452383209951,243.99845652544172 95.74784518906381,243.6848350474611 96.88791568181477,244.1726905675314 97.7506717304932,244.79993245360674 98.79830407514237,245.25293983527808 99.78431098780129,245.46201998213655 100.67787975247484,245.49686666202615 101.69469938112888,245.6711000134237 102.52664271369576,245.81048663667752 103.35858604637906,246.0195664751227 104.09809123084415,246.4377258051827 104.59109468734823,247.03011739760404 104.9916599955177,247.58766157767968 105.26897443970665,248.24974422354717 105.48466345202178,248.9815184302861 105.82360332820099,249.53905973228393 106.3782322164625,249.81783007486956 107.14855011703912,249.9920614345756 107.76480443740729,250.1314464645693 108.53512233810034,250.2359852033842 109.21300209045876,250.2359852033842 109.86006912705489,250.3056776797457 110.59957431140356,250.4450625941099 111.27745406399481,250.68898607054143 111.95533381646965,251.21167870427598 112.78727714903653,252.0828314878745 113.4959696176229,252.9539822638908 113.86572220979724,254.10389821435092 114.48197653016541,255.07958173236693 115.19066899875179,255.5325767955219 115.89936146722175,255.70680552141857 116.57724121969659,255.84618844426586 117.2243082561763,256.0901084356883 117.84056257666089,256.612793601671 118.21031516895164,257.1354780450056 118.45681689702906,258.0763082218182 118.82656948931981,259.2958994106448 119.38119837769773,260.5154866652447 120.49045615456998,261.21239190149936 121.56890121509787,261.2472371295444 122.647346275975,261.1775466701656 123.57172775676008,261.3517727946164 124.12635664502159,261.5259988386824 124.83504911349155,261.90929585296544 125.42049071798101,262.22290221214644 125.97511960624252,262.536508311081 126.5913739267271,262.8501141498564 127.79306985158473,263.3727899698133 129.08720392454416,263.61670510520344 130.1964617013,263.68639511504443 131.4597830582643,263.7560851118469 132.6614789830055,263.7909301056061 133.5242350315675,263.8257750959601 134.10967663605697,263.86062008325825 134.78755638864823,263.89546506726765 135.52706157311331,263.89546506726765 136.1433158935979,263.89546506726765 136.82119564607274,264.0 137.314199102344,264.0 136.82119564607274,263.7909301056061 136.57469391799532,263.8257750959601 136.451443053782,263.8257750959601 135.95843959739432,263.86062008325825 135.4038107090164,263.7909301056061 134.63349280855618,263.7560851118469 133.98642577196006,263.7560851118469 132.8463552792091,263.68639511504443 131.95278651453555,263.72124011506094 130.99759231787175,263.6515501117392 129.91914725722745,263.6515501117392 128.9331403444521,263.58186009555357 128.1628224439919,263.44248002464883 127.3308791113086,263.23340982189984 126.5913739267271,262.8501141498564 125.97511960624252,262.536508311081 125.38967800198589,262.22290221214644 124.46529652131721,261.76991516549606 123.510102324537,261.3517727946164 122.49328269588295,261.14270143568865 121.35321220313199,261.2472371295444 120.36720529035665,261.1775466701656 119.65851282188669,260.8639394440106 119.10388393350877,260.2715695290535 118.88819492131006,259.7488894216076 118.70331862522289,258.98229062356404 118.51844232901931,258.38991776044713 118.27194060094189,257.44908836408285 117.59406084846705,256.4734109613928 116.42317763960455,255.9855713158322 115.06741813465487,255.67195978257223 114.1430366539862,254.83566108898958 113.83490949380212,254.34781932996702 113.68084591359366,253.7902851201652 113.43434418551624,253.16305815143278 113.15702974121086,252.77975226932904 112.78727714903653,252.2919078572304 112.35589912463911,251.76921671701712 111.8937083844794,251.28137100089225 111.24664134799968,250.7935246550187 110.44551073131151,250.41021637027734 109.79844369494822,250.4450625941099 109.08975122636184,250.37537014333066 108.87406221427955,250.1314464645693 108.90487493027467,250.1314464645693 108.44268418999854,250.20113896028488 107.85724258550908,250.16629271401325 107.30261369724758,250.20113896028488 106.77879752486479,250.09660021189484 106.19335592037532,249.7829837933241 105.70035246398766,249.29513551387936 105.29978715570178,248.52851551692584 105.11491085961461,247.93612627271796 104.68353283533361,247.27404307760298 104.15971666306723,246.71649843489286 103.23533518228214,246.22864619793836 102.40339184971526,245.98471984334174 101.57144851703197,245.88017992905225 100.70869246846996,245.77563998565893 99.75349827192258,245.6711000134237 98.85992950724903,245.49686666202615 97.8739225944737,245.0438595727028 97.01116654591169,244.52115841049817 96.3949122254271,244.06815015189932 95.74784518906381,243.78937556908932 95.19321630068589,243.78937556908932 94.45371111598797,243.92876288620755 93.8374567956198,244.27723095411784 93.37526605534367,244.79993245360674 92.91307531506754,245.28778653446352 92.35844642657321,245.81048663667752 91.34162679780275,246.05441310370225 90.07830544095486,245.81048663667752 89.27717482438311,244.93931939819595 88.81498408410698,243.85906923402217 88.47604420781136,243.057591310906 87.89060260343831,242.186417727964 87.21272285096347,241.31524213703233 86.34996680240147,240.75768870519823 85.70289976592176,240.2001344509481 85.08664544555359,240.09559293670463 84.31632754486054,239.92135701532243 83.79251137247775,239.81681542404112 83.2070697681047,239.57288493181113 82.56000273162499,239.32895428215852 81.78968483116478,239.01532892975956 81.23505594278686,238.7713979203254 81.14261779456865,238.70170331734698 80.74205248628277,238.35323010926368 80.24904903001152,238.07445131154964 79.75604557374027,237.69113012892194 79.13979125325568,237.27296112282784 78.64678779686801,236.88963912735926 78.24622248858213,236.5411642488034 77.62996816821396,236.0881464262202 77.16777742782142,235.70482322925818 76.70558668742888,235.28665202553384 76.15095779916737,234.90332801570185 75.71957977488637,234.4503082301526 75.19576360250358,234.06698337206035 74.33300755382515,233.54426703014178 73.77837866544724,233.1609412532125 73.1004989129724,232.53368005232187 72.26855558040552,231.90641781050363 71.46742496383376,231.17461054606247 70.69710706325714,230.4428018645267 70.20410360686947,229.81553615271696 69.31053484231234,228.90948384208605 68.60184237384237,228.07312593518873 67.98558805335779,227.3064628946886 67.43095916497987,226.64434356268612 67.03039385669399,226.0867684885161 66.75307941250503,225.5640411095519 66.4141395362094,224.9716158726951 66.04438694391865,224.41403833089862 65.42813262355048,223.22918332312838 64.96594188327435,222.32311522235977 64.5961892909836,221.3821960494388 64.04156040248927,220.4761235206097 63.7334332424216,219.46550159872277 63.48693151422776,218.66397194587626 63.24042978603393,217.82759136514505 63.05555348994676,217.16545542603126 62.83986447774805,216.32907152880216 62.74742632964626,215.5972341003362 62.74742632964626,214.69114770132 62.74742632964626,213.6108110785426 62.87067719385959,212.49562164771487 63.11717892193701,210.75313157352502 63.36368065001443,209.56823373347288 63.51774423010647,208.76668308782973 63.7334332424216,207.82573016028618 63.979934970499016,207.09387626341777 64.07237311860081,206.46657179514295 64.22643669869285,205.8044159488345 64.44212571089156,205.07255813697702 64.5961892909836,204.3406989077921 64.7194401549641,203.8179414475162 64.9043164512841,203.01637860399205 65.0275673152646,202.42391801794292 65.21244361135177,201.76175508723827 65.3356944755651,201.09959099607659 65.45894533954561,200.12376811512513 65.61300891963765,199.46160115342354 65.82869793183636,198.5903270675044 65.98276151204482,198.10241270175902 66.16763780801557,197.3705399717728 66.32170138822403,196.56896345049608 66.47576496843249,195.52342630180647 66.75307941250503,193.9551151539199 66.99958114069887,192.2125395766634 67.09201928868424,191.1669903723814 67.2460828688927,190.60936294711428 67.33852101699449,189.8426238935208 67.52339731308166,189.1804389130266 67.58502274507191,188.51825277201715 67.6774608931737,187.85606547031784 67.70827360928524,187.15902495148475 67.73908632528037,186.496835267375 67.73908632528037,185.76494005564018 67.6774608931737,184.68452072312357 67.6774608931737,183.39498392667156 67.73908632528037,181.79176987949177 67.6774608931737,180.1188436197699 67.55421002907678,178.30649847828317 67.55421002907678,177.08664589122054 67.461771880975,176.0062017388409 67.33852101699449,174.85604811651865 67.2460828688927,173.63618438720005 67.09201928868424,172.52087695884984 66.8147048446117,171.37071272433968 66.59901583229657,170.1856913654192 66.44495225232095,169.0355200205522 66.19845052412711,167.8156374944956 66.04438694391865,166.6306049824925 65.89032336382661,165.4455687526788 65.64382163563278,164.1211120961525 65.45894533954561,162.86635940065025 65.24325632746331,161.71616576818633 65.05838003137615,160.46140508336248 64.84269101906102,158.9975123493059 64.68862743896898,157.91701645386638 64.50375114288181,157.32448513439158 64.38050027890131,156.73195288522402 64.34968756278977,156.20912954056985 64.25724941468798,156.0697098597011 64.22643669869285,156.0697098597011 64.04156040248927,156.24398445268162 63.302055218140595,156.27883936167927" stroke="#4DD2FF" stroke-linecap="round" stroke-linejoin="round" stroke-width="0.5"><title>2025-01-31 10.0km</title><desc>1173393667</desc></polyline></svg>