<?xml version="1.0" encoding="utf-8" ?>
<svg baseProfile="full" height="200mm" version="1.1" viewBox="0,0,200,200" width="200mm" xmlns="http://www.w3.org/2000/svg" xmlns:ev="http://www.w3.org/2001/xml-events" xmlns:xlink="http://www.w3.org/1999/xlink"><defs /><rect fill="#1a1a1a" height="200" width="200" x="0" y="0" /><rect fill="#1a1a1a" height="200" width="180" x="10" y="0" /><text alignment-baseline="middle" fill="#e1ed5e" style="dominant-baseline: central; font-size:9.0px; font-family:Arial;" text-anchor="middle" x="100.0" y="100.0">2025</text><line stroke="#e1ed5e" stroke-width="0.3" x1="100.0" x2="100.0" y1="15.0" y2="10.0" /><path d="M 100.0 14.0 a86.0,86.0 0 0,1 42.46469731375804,11.215312516191453" fill="none" id="id25" stroke="none" /><text fill="#e1ed5e" style="font-size:6.75px; font-family:Arial;" text-anchor="middle"><textPath startOffset="22.20632615414155" xlink:href="#id25">January</textPath></text><path d="M 101.08401301168833 79.027996857942 l 1.2918718855873137 -24.99337272850304 a46.02673796791444,46.02673796791444 0 0,0 0.7908663727113472,0.047707219364329714 l -1.7219003071382728 24.967432239758406" fill="#d2ff1c" stroke="none" /><path d="M 102.88285421437855 79.19881850522331 l 1.4663652924347692 -10.58053176377914 a31.681660899653977,31.681660899653977 0 0,0 0.5395402232979448,0.07951420382635825 l -1.6482744961613698 10.553723075791812" fill="#ff720a" stroke="none" /><path d="M 103.59715602781102 79.31037775812273 l 1.2875274237862244 -7.405421343484137 a28.51651462724127,28.51651462724127 0 0,0 0.4828862728851185,0.08824437983837609 l -1.4148088177742437 7.382161482295022" fill="#ff4506" stroke="none" /><path d="M 103.95276090670814 79.375362276772 l 1.8293930965796528 -9.545371136993902 a30.719094054734192,30.719094054734192 0 0,0 0.5184704192255487,0.10400028858017861 l -1.9934299252723269 9.512466892336514" fill="#ff6409" stroke="none" /><path d="M 104.66035177308747 79.52364482259891 l 1.8967692449940805 -8.333903241887462 a29.54702736709657,29.54702736709657 0 0,0 0.49494973087688715,0.11713861011411507 l -2.0399426628334916 8.300018719632478" fill="#ff5407" stroke="none" /><path d="M 108.76106565485865 80.91482961587045 l 2.67284746914283 -5.822550745421094 a27.40673167662787,27.40673167662787 0 0,0 0.4270514172218162,0.20050636651997641 l -2.772677097664244 5.775679396261115" fill="#ff3505" stroke="none" /><path d="M 109.08828744355905 81.06846463323043 l 3.0091449190735235 -6.268258328421253 a27.95312991506763,27.95312991506763 0 0,0 0.4319806587823664,0.21197103319310392 l -3.1165968448663217 6.2155321350933175" fill="#ff3d05" stroke="none" /><path d="M 109.41281617654863 81.2277094730956 l 6.379125545253664 -12.722100994753301 a35.2318339100346,35.2318339100346 0 0,0 0.5397844315984991,0.2764985512058197 l -6.597170464440919 12.61040991823498" fill="#ffa30f" stroke="none" /><path d="M 110.05341064243156 81.56283822128135 l 2.417914607391978 -4.4342645863345265 a26.05064485687323,26.05064485687323 0 0,0 0.3918462464012255,0.2180620118793526 l -2.4938849428652388 4.391987176894994" fill="#ff2103" stroke="none" /><path d="M 110.36928655335952 81.73862282372117 l 13.979175688706498 -24.618762202326202 a49.3107895564643,49.3107895564643 0 0,0 0.7345036237131713,0.42547190778311883 l -14.400876044884997 24.374486137153035" fill="#abff21" stroke="none" /><line stroke="#e1ed5e" stroke-width="0.3" x1="143.23703022742887" x2="145.7803849466894" y1="26.81831364943548" y2="22.513508569990506" /><path d="M 143.74570117128098 25.957352633546492 a86.0,86.0 0 0,1 28.547481713284135,27.462654790039103" fill="none" id="id26" stroke="none" /><text fill="#e1ed5e" style="font-size:6.75px; font-family:Arial;" text-anchor="middle"><textPath startOffset="19.985693538727396" xlink:href="#id26">February</textPath></text><path d="M 111.60114157652 82.49532879139004 l 5.6897883056729155 -8.585178698187622 a31.29946524064171,31.29946524064171 0 0,0 0.4465320406515178,0.3015004271239836 l -5.8367250407309745 8.485966358764967" fill="#ff6c0a" stroke="none" /><path d="M 111.90073688211348 82.69761687909136 l 5.443652573721881 -7.914481543510044 a30.605850896508336,30.605850896508336 0 0,0 0.4314971141429485,0.30229130362108664 l -5.579080827448481 7.819605397125023" fill="#ff6309" stroke="none" /><path d="M 113.06298171725822 83.55741782278167 l 3.5291711717142147 -4.442223702396826 a26.673482227115446,26.673482227115446 0 0,0 0.35703929535679046,0.28870094642652416 l -3.6051138656354964 4.380816658706174" fill="#ff2a04" stroke="none" /><path d="M 113.34407831869373 83.78471172551755 l 7.814677960239818 -9.49614149971039 a33.29820698332809,33.29820698332809 0 0,0 0.4394450999145079,0.3680226334138806 l -7.976980597113443 9.36021770890269" fill="#ff880c" stroke="none" /><path d="M 114.68862486808459 84.99185889309783 l 4.0594545876385295 -4.1477584059429455 a26.80371185907518,26.80371185907518 0 0,0 0.32695959052026863,0.32555552213115885 l -4.130249978326121 4.077267033161668" fill="#ff2c04" stroke="none" /><path d="M 116.82858285166822 87.43820079747576 l 2.8994197031095097 -2.1642896752113403 a24.618118905316138,24.618118905316138 0 0,0 0.2505624961738655,0.341766963193353 l -2.9362448117970015 2.1140602683464915" fill="#ff0c01" stroke="none" /><path d="M 117.2510076193507 88.02491185347247 l 2.825682953872885 -1.961497159668039 a24.439760931110413,24.439760931110413 0 0,0 0.23692082811806064,0.3476520807685739 l -2.8590282476596767 1.912567055629061" fill="#ff0901" stroke="none" /><path d="M 117.45458315368197 88.32363383020206 l 5.273318767905622 -3.527623680382488 a27.344447939603647,27.344447939603647 0 0,0 0.25834430835702005,0.3934761056119587 l -5.333259711620568 3.4363295107928553" fill="#ff3404" stroke="none" /><line stroke="#e1ed5e" stroke-width="0.3" x1="172.23445277983987" x2="176.4835382374775" y1="55.19839476539836" y2="52.563006222186495" /><path d="M 173.08426987136738 54.67131705675599 a86.0,86.0 0 0,1 12.851231095245387,41.99856678651699" fill="none" id="id27" stroke="none" /><text fill="#e1ed5e" style="font-size:6.75px; font-family:Arial;" text-anchor="middle"><textPath startOffset="22.20632615414155" xlink:href="#id27">March</textPath></text><path d="M 117.84615892207809 88.93136811851018 l 14.507572682352604 -8.997957611834394 a38.07140610254797,38.07140610254797 0 0,0 0.34061979731896225,0.5598893868470189 l -14.660308277957789 8.746900451780293" fill="#ffc812" stroke="none" /><path d="M 118.03404312379186 89.2402003453031 l 10.045836451827793 -5.993730127156911 a32.698018244731045,32.698018244731045 0 0,0 0.2842241378365896,0.48583118417066645 l -10.147520264134709 5.8199195306323475" fill="#ff800b" stroke="none" /><path d="M 118.21658344932153 89.55222093294921 l 8.416154875408917 -4.826927451954757 a30.702107581000313,30.702107581000313 0 0,0 0.25898303591389854,0.4607019227871052 l -8.497995552615249 4.681342019232859" fill="#ff6409" stroke="none" /><path d="M 118.73160827565052 90.50648371742162 l 3.1995166070079364 -1.6215726144825622 a24.586977036804026,24.586977036804026 0 0,0 0.18807865108128813,0.37915508386502317 l -3.2269552710426326 1.5662579421185892" fill="#ff0b01" stroke="none" /><path d="M 119.61058180528143 92.48833698450437 l 9.536067303956786 -3.6527077468511333 a31.211701793016672,31.211701793016672 0 0,0 0.18785789960442395,0.5033657738683248 l -9.597529792062835 3.488018835953475" fill="#ff6b09" stroke="none" /><line stroke="#e1ed5e" stroke-width="0.3" x1="184.98032266829074" x2="189.97916517819016" y1="98.17113171792111" y2="98.06355123074" /><path d="M 185.9800911702706 98.14961562048488 a86.0,86.0 0 0,1 -9.607161424134198,41.387399972396054" fill="none" id="id28" stroke="none" /><text fill="#e1ed5e" style="font-size:6.75px; font-family:Arial;" text-anchor="middle"><textPath startOffset="21.466115282336823" xlink:href="#id28">April</textPath></text><path d="M 120.99980553446 99.90962569577887 l 10.760831461351158 -0.046310079136904964 a31.76093111041208,31.76093111041208 0 0,0 -0.00235288412458934,0.5467274076114137 l -10.760034279937067 -0.13892680667819338" fill="#ff730a" stroke="none" /><path d="M 120.89721153311464 102.0752229133903 l 3.2059983001866454 0.3183755460528686 a24.221767851525637,24.221767851525637 0 0,0 -0.04477301340819222,0.4145424979186207 l -3.2000429852774013 -0.37351436585628045" fill="#ff0600" stroke="none" /><path d="M 120.49622156327973 104.57218783832717 l 14.246868069060842 3.1781153769489334 a35.59704309531299,35.59704309531299 0 0,0 -0.1385562931979336,0.5968968847415991 l -14.190051209932355 -3.422880919039097" fill="#ffa80f" stroke="none" /><path d="M 119.26925614724726 108.34839909993367 l 13.045909006175675 5.652135929519646 a35.21767851525637,35.21767851525637 0 0,0 -0.24578403626089185,0.5541781166777238 l -12.94668388518351 -5.875862382690056" fill="#ffa20f" stroke="none" /><path d="M 118.81262510543309 109.33194174019688 l 12.772261721695193 6.335639051404056 a35.25731362063542,35.25731362063542 0 0,0 -0.2743712900784255,0.5413605849357677 l -12.661311761830499 -6.554553848042517" fill="#ffa30f" stroke="none" /><line stroke="#e1ed5e" stroke-width="0.3" x1="174.80103733775053" x2="179.2010983576182" y1="140.37084112569926" y2="142.7455964860345" /><path d="M 175.68104954172406 140.8457921977663 a86.0,86.0 0 0,1 -30.038265399797805,32.042727171017184" fill="none" id="id29" stroke="none" /><text fill="#e1ed5e" style="font-size:6.75px; font-family:Arial;" text-anchor="middle"><textPath startOffset="22.206326154141568" xlink:href="#id29">May</textPath></text><path d="M 118.48025628344425 109.97397251340804 l 10.032803494373347 5.414800787960395 a32.40075495438818,32.40075495438818 0 0,0 -0.269116953125056,0.48852544022512573 l -9.938110131796781 -5.5866967465833275" fill="#ff7c0b" stroke="none" /><path d="M 117.55443506779139 111.5257021239791 l 5.722368758448689 3.75713131745582 a27.845548914753067,27.845548914753067 0 0,0 -0.2665175647618682,0.3984075977409453 l -5.656848088276099 -3.855075829402572" fill="#ff3b05" stroke="none" /><path d="M 116.27256486870786 113.27417163493432 l 5.681832967683459 4.634894782880495 a28.33249449512425,28.33249449512425 0 0,0 -0.31152791961515963,0.3752554477002354 l -5.601209048174756 -4.732011487694498" fill="#ff4206" stroke="none" /><path d="M 116.0416608686014 113.55231037782055 l 8.055792936081456 6.805692197552901 a31.545769109782952,31.545769109782952 0 0,0 -0.35399984676528695,0.4117817970263949 l -7.937450579745389 -6.943351093740826" fill="#ff700a" stroke="none" /><path d="M 114.55890576462653 115.13401014063108 l 3.0461630000494817 3.166492212950087 a25.393834539163258,25.393834539163258 0 0,0 -0.3176214457546289,0.30033090189205947 l -2.991205719904045 -3.218457751588068" fill="#ff1702" stroke="none" /><path d="M 113.48314897796784 116.09983520530334 l 6.012976697854348 7.1799202164845335 a30.36520918527839,30.36520918527839 0 0,0 -0.40361128269525337,0.33214460794196604 l -5.888495286614403 -7.282359943283677" fill="#ff5f08" stroke="none" /><path d="M 113.20401910651253 116.32954008644616 l 6.490161370917812 8.026446297827176 a31.322113872286884,31.322113872286884 0 0,0 -0.4221661735145104,0.33539434054985234 l -6.35103770468595 -8.136974552382153" fill="#ff6d0a" stroke="none" /><path d="M 112.63410532772338 116.77436683061366 l 6.81979387932473 9.054675521023295 a32.33564013840831,32.33564013840831 0 0,0 -0.4474868102551519,0.33104004432803735 l -6.662922098651014 -9.170725514091101" fill="#ff7b0b" stroke="none" /><path d="M 112.04921762599082 117.19931262002967 l 10.836336329886054 15.468019748557673 a39.88612771311733,39.88612771311733 0 0,0 -0.5657051684954485,0.38909717326629806 l -10.568474276767722 -15.652257711189064" fill="#ffe015" stroke="none" /><line stroke="#e1ed5e" stroke-width="0.3" x1="143.8653032363475" x2="146.44561519142675" y1="172.8068346515853" y2="177.08958963109032" /><path d="M 144.38136562736335 173.6633856474863 a86.0,86.0 0 0,1 -40.68145358897372,12.25698825130547" fill="none" id="id30" stroke="none" /><text fill="#e1ed5e" style="font-size:6.75px; font-family:Arial;" text-anchor="middle"><textPath startOffset="21.466115282336833" xlink:href="#id30">June</textPath></text><path d="M 109.89434966115114 118.52300852407294 l 4.727305333993571 8.84989109908522 a31.03334381881095,31.03334381881095 0 0,0 -0.47334582619944243,0.24763216456221585 l -4.5742686052676325 -8.929952682592152" fill="#ff6909" stroke="none" /><path d="M 108.59647513512805 119.15986991738528 l 4.881366998044218 10.879616962929953 a32.92450456118276,32.92450456118276 0 0,0 -0.5190772741592444,0.2275482227164739 l -4.69336904922722 -10.962029738940885" fill="#ff830c" stroke="none" /><path d="M 107.59598834532513 119.57807347666477 l 2.9082739721462314 7.4958516164644715 a29.04026423403586,29.04026423403586 0 0,0 -0.46758943497703964,0.17680231427082405 l -2.778814316408917 -7.544802180841926" fill="#ff4c07" stroke="none" /><path d="M 104.83641907484287 120.43548508189849 l 2.0284141116033094 8.570726745578511 a29.80748663101604,29.80748663101604 0 0,0 -0.5003113540321322,0.11386923530379095 l -1.8805826081783146 -8.604372714459988" fill="#ff5708" stroke="none" /><line stroke="#e1ed5e" stroke-width="0.3" x1="102.19456741930631" x2="102.32365962044197" y1="184.97166512339345" y2="189.96999836594603" /><path d="M 102.22038585953345 185.97133177190398 a86.0,86.0 0 0,1 -42.740103519485714,-10.115201625700543" fill="none" id="id31" stroke="none" /><text fill="#e1ed5e" style="font-size:6.75px; font-family:Arial;" text-anchor="middle"><textPath startOffset="22.20632615414155" xlink:href="#id31">July</textPath></text><path d="M 99.09653310690486 120.98055641714683 l -0.5490714178860663 12.750687322405684 a33.7625039320541,33.7625039320541 0 0,0 -0.5804127028432393,-0.030000707026859426 l 0.7684721891427946 -12.739346808616622" fill="#ff8f0d" stroke="none" /><path d="M 96.22490169976321 120.6578951692458 l -2.042349725275279 11.176039183146104 a32.36111984900912,32.36111984900912 0 0,0 -0.5471069321488083,-0.10485434567178946 l 2.2344242719957825 -11.139227639125846" fill="#ff7b0b" stroke="none" /><path d="M 90.42595943632237 118.69057910512821 l -4.279987216441157 8.355452340709812 a30.38785781692356,30.38785781692356 0 0,0 -0.4635003481662839,-0.24248147578129578 l 4.423178467133937 -8.280541445983799" fill="#ff6008" stroke="none" /><line stroke="#e1ed5e" stroke-width="0.3" x1="58.666819895761336" x2="56.23545636021788" y1="174.27360380694188" y2="178.64263932499728" /><path d="M 58.180547188652646 175.14741091055294 a86.0,86.0 0 0,1 -31.652253787137756,-30.449443065178592" fill="none" id="id32" stroke="none" /><text fill="#e1ed5e" style="font-size:6.75px; font-family:Arial;" text-anchor="middle"><textPath startOffset="22.20632615414155" xlink:href="#id32">August</textPath></text><path d="M 89.4739219176387 118.17145234162733 l -3.129016605168738 5.401705713380883 a27.24252909720038,27.24252909720038 0 0,0 -0.40375001569013913,-0.23854262593915604 l 3.221534491887259 -5.347044515147978" fill="#ff3204" stroke="none" /><path d="M 87.65650970185807 116.9893568818739 l -4.418096446533075 6.080988071906062 a28.51651462724127,28.51651462724127 0 0,0 -0.39463465437881745,-0.29194128292732036 l 4.522116071330456 -6.004036840238973" fill="#ff4506" stroke="none" /><path d="M 86.79598089348748 116.32954008644616 l -7.522606130965075 9.303280870712465 a32.96413966656181,32.96413966656181 0 0,0 -0.43815600322677734,-0.3605725611468036 l 7.6816322627365405 -9.17241319070848" fill="#ff840c" stroke="none" /><path d="M 84.9287848128048 114.62390073753433 l -2.257329808067296 2.1903321421022732 a24.14532871972318,24.14532871972318 0 0,0 -0.2868619681129732,-0.30077362670741703 l 2.2946983275592268 -2.151151398812356" fill="#ff0500" stroke="none" /><path d="M 84.67929136418377 114.36230785411684 l -5.039661493469411 4.724400911883124 a27.907832651777287,27.907832651777287 0 0,0 -0.32552970729080605,-0.3532982043661492 l 5.120237608755946 -4.636951452715633" fill="#ff3c05" stroke="none" /><path d="M 84.19399662182784 113.82643327865904 l -2.2501873321372137 1.9683701355678704 a23.98961937716263,23.98961937716263 0 0,0 -0.2692063570844935,-0.31314781207993514 l 2.2837361987924862 -1.9293452243264073" fill="#ff0200" stroke="none" /><line stroke="#e1ed5e" stroke-width="0.3" x1="26.63291911575756" x2="22.317208475507996" y1="142.92168965132927" y2="145.44649492493687" /><path d="M 25.769776987707644 143.4266507060508 a86.0,86.0 0 0,1 -11.730757126820373,-40.83630448921669" fill="none" id="id33" stroke="none" /><text fill="#e1ed5e" style="font-size:6.75px; font-family:Arial;" text-anchor="middle"><textPath startOffset="21.46611528233685" xlink:href="#id33">September</textPath></text><path d="M 81.51974371655577 109.97397251340807 l -5.839804169558256 3.1517986210526914 a27.63604907203523,27.63604907203523 0 0,0 -0.22233529396639604,-0.4205745869412122 l 5.8931919717495385 -3.0508090190253534" fill="#ff3805" stroke="none" /><path d="M 81.18737489456691 109.33194174019688 l -6.008238288065112 2.980367139153338 a27.70682604592639,27.70682604592639 0 0,0 -0.20825867909009352,-0.42907456310876013 l 6.058650223769924 -2.876503620079293" fill="#ff3905" stroke="none" /><path d="M 80.87730276802145 108.67885076344099 l -13.970147346437566 6.340362057307338 a36.341616860648,36.341616860648 0 0,0 -0.25362799743848025,-0.5718641783879155 l 14.077216428607324 -6.098949542426728" fill="#ffb110" stroke="none" /><path d="M 80.32549172779594 107.34259656027581 l -13.813621410367869 5.15529270919648 a35.74425920100661,35.74425920100661 0 0,0 -0.2101689914126237,-0.5782948003774459 l 13.900314662785718 -4.9167501118129175" fill="#ffaa0f" stroke="none" /><path d="M 79.76711848015287 105.62410040840567 l -13.68467621243064 3.803906675365738 a35.20352312047814,35.20352312047814 0 0,0 -0.15726239159423522,-0.585231862167784 l 13.748126680366648 -3.5677838800224153" fill="#ffa20f" stroke="none" /><path d="M 79.58551787078972 104.9243191809786 l -14.079965475177257 3.396326373507374 a35.483799937087134,35.483799937087134 0 0,0 -0.13811551073766212,-0.5949980054390985 l 14.136341551845474 -3.1534597107197015" fill="#ffa60f" stroke="none" /><path d="M 79.23777060512086 103.15116336523772 l -3.840261366526876 0.5828512295563956 a24.8842403271469,24.8842403271469 0 0,0 -0.06062979862235657,-0.42404467035225957 l 3.8497252161658313 -0.516661087223736" fill="#ff1001" stroke="none" /><path d="M 79.18660465613746 102.79330883721812 l -19.680738094888586 2.6412980071335888 a40.85718779490406,40.85718779490406 0 0,0 -0.08754818034232285,-0.6978451367512984 l 19.723287784477755 -2.302135116094882" fill="#ffec16" stroke="none" /><path d="M 79.10278846688536 102.07522291339032 l -13.339544772744956 1.32469965778589 a34.40515885498584,34.40515885498584 0 0,0 -0.053451533228346164,-0.5898332151303817 l 13.360370902250377 -1.0948850541069424" fill="#ff970e" stroke="none" /><path d="M 79.07016306316243 101.71520430193888 l -11.122826208378243 0.9115178211804785 a32.16011324315822,32.16011324315822 0 0,0 -0.0404657555061392,-0.5521230836888007 l 11.136868522548717 -0.719921600994917" fill="#ff790b" stroke="none" /><line stroke="#e1ed5e" stroke-width="0.3" x1="15.007084014347285" x2="10.007500721073583" y1="101.09737516637583" y2="101.16192664675087" /><path d="M 14.007167355692545 101.11028546245083 a86.0,86.0 0 0,1 10.666146001902534,-42.60595125391555" fill="none" id="id34" stroke="none" /><text fill="#e1ed5e" style="font-size:6.75px; font-family:Arial;" text-anchor="middle"><textPath startOffset="22.20632615414155" xlink:href="#id34">October</textPath></text><path d="M 79.00019446554 99.90962569577889 l -11.652613074170318 -0.05014793099907398 a32.65272098144071,32.65272098144071 0 0,0 0.007256667447981136,-0.5620368909742331 l 11.65002339960462 0.25072108003377913" fill="#ff7f0b" stroke="none" /><path d="M 79.12142395522702 97.74499172005258 l -25.36053163574412 -2.7390856876366727 a46.50802139037433,46.50802139037433 0 0,0 0.09281594090343448,-0.7951902999207225 l 25.309625341837098 3.1752197258822568" fill="#ccff1d" stroke="none" /><path d="M 79.54389044137918 95.25157060432595 l -5.11563608024648 -1.1874807705444694 a26.251651462724126,26.251651462724126 0 0,0 0.10596566585829571,-0.43929609606340264 l 5.0944376141273695 1.2753620982672689" fill="#ff2403" stroke="none" /><path d="M 80.2630227832202 92.82701384747504 l -2.7033796142877304 -0.9824860375183606 a23.876376218936773,23.876376218936773 0 0,0 0.14370782844202223,-0.38506553318746384 l 2.6860671973440806 1.0288747077351659" fill="#ff0000" stroke="none" /><path d="M 81.43458229118936 90.18545643968196 l -5.986852895269182 -3.164928979860795 a27.77194086190626,27.77194086190626 0 0,0 0.22705796737966086,-0.4207039294256352 l 5.93148682867105 3.267513892618903" fill="#ff3a05" stroke="none" /><line stroke="#e1ed5e" stroke-width="0.3" x1="26.266209847984243" x2="21.928928074336255" y1="57.71137044288968" y2="55.22380399835378" /><path d="M 25.398753493254645 57.2138571539825 a86.0,86.0 0 0,1 29.58750427330803,-30.4925239686951" fill="none" id="id35" stroke="none" /><text fill="#e1ed5e" style="font-size:6.75px; font-family:Arial;" text-anchor="middle"><textPath startOffset="21.46611528233685" xlink:href="#id35">November</textPath></text><path d="M 82.54541684631803 88.32363383020207 l -11.796138769973627 -7.891109999891753 a35.192198804655554,35.192198804655554 0 0,0 0.3411557464737939,-0.5006039615422524 l 11.658558557831093 8.092991984704419" fill="#ffa20f" stroke="none" /><path d="M 83.17141714833178 87.43820079747577 l -4.004284644748269 -2.9890229082535313 a25.99685435671595,25.99685435671595 0 0,0 0.27076845363349883,-0.3562995458603101 l 3.9522402508906618 3.057507229994868" fill="#ff2003" stroke="none" /><path d="M 84.07557802195018 86.31012108654704 l -7.616930190732136 -6.5481090709025 a31.044668134633532,31.044668134633532 0 0,0 0.35185160040802055,-0.40222720296552283 l 7.503086726746272 6.678251830070965" fill="#ff6909" stroke="none" /><path d="M 84.31358615837235 86.03803664274999 l -2.125310642722661 -1.8916694163532468 a23.84523435042466,23.84523435042466 0 0,0 0.2755332264824417,-0.3042506705285965 l 2.0924337756241744 1.9279728741513993" fill="#ff0000" stroke="none" /><path d="M 84.5562425177563 85.77008943001954 l -13.147979396086233 -12.114575821160287 a38.878263604907204,38.878263604907204 0 0,0 0.4577132013418892,-0.4882565300614746 l 12.937498872773885 12.339101768099814" fill="#ffd313" stroke="none" /><path d="M 85.05521093208273 85.24692304244772 l -10.130193605377439 -10.000243240359444 a35.23466498899025,35.23466498899025 0 0,0 0.4298028458703557,-0.42795713585928996 l 9.95655495933977 10.173136226868845" fill="#ffa30f" stroke="none" /><path d="M 86.10567301691215 84.25364557470405 l -7.86156792540597 -8.90946607508656 a32.882038376848065,32.882038376848065 0 0,0 0.42763279018342804,-0.3708389416835775 l 7.707041336575768 9.043470010189818" fill="#ff830c" stroke="none" /><path d="M 86.37877921826538 84.01681056812373 l -2.7746817868872964 -3.2558215833683133 a25.277760301981754,25.277760301981754 0 0,0 0.3335971785832593,-0.2793780433222163 l 2.7182270713449266 3.3031007840843443" fill="#ff1502" stroke="none" /><path d="M 86.93701828274178 83.55741782278169 l -39.18894515177469 -49.32774653165494 a84.0,84.0 0 0,0 1.1398697793622974,-0.889686443107113 l 38.334042817252964 49.99501136398527" fill="#4dd2ff" stroke="none" /><path d="M 87.51073957382395 83.11751280151077 l -2.241028934603017 -3.029334084553432 a24.768166089965398,24.768166089965398 0 0,0 0.3449317227779915,-0.250607565856367 l 2.188551895471244 3.0674608852264664" fill="#ff0e01" stroke="none" /><path d="M 87.80319425747018 82.90503203632743 l -2.1655318154287224 -3.035196082526866 a24.72853098458635,24.72853098458635 0 0,0 0.34863561849412517,-0.2442415305897474 l 2.1129650573509373 3.072022455880556" fill="#ff0d01" stroke="none" /><path d="M 88.39885842347998 82.49532879139004 l -4.721679740194214 -7.12442399390556 a29.54702736709657,29.54702736709657 0 0,0 0.4263677896325842,-0.2773214705686855 l 4.598344924777341 7.20464438863378" fill="#ff5407" stroke="none" /><path d="M 89.00827224532344 82.1063720568725 l -8.529418724116066 -13.885191539204857 a37.295690468700855,37.295690468700855 0 0,0 0.5499124064626064,-0.33131607188180967 l 8.289144251435813 14.029954220545287" fill="#ffbe11" stroke="none" /><line stroke="#e1ed5e" stroke-width="0.3" x1="56.76296977257108" x2="54.21961505331056" y1="26.818313649435495" y2="22.513508569990535" /><path d="M 56.25429882871898 25.957352633546506 a86.0,86.0 0 0,1 42.26535254187918,-11.944610805530505" fill="none" id="id36" stroke="none" /><text fill="#e1ed5e" style="font-size:6.75px; font-family:Arial;" text-anchor="middle"><textPath startOffset="22.20632615414155" xlink:href="#id36">December</textPath></text></svg>